<svg width="246" height="42" viewBox="0 0 246 42" fill="none" xmlns="http://www.w3.org/2000/svg">
<g clip-path="url(#clip0_543_13049)">
<path d="M6.69922 1.90039C3.89922 1.90039 1.69922 4.00039 1.69922 6.90039C1.69922 9.70039 3.79922 11.9004 6.69922 11.9004C9.49922 11.9004 11.6992 9.70039 11.6992 6.90039C11.6992 4.10039 9.49922 1.90039 6.69922 1.90039Z" fill="url(#paint0_linear_543_13049)"/>
<path d="M6.69922 1.90039C3.89922 1.90039 1.69922 4.00039 1.69922 6.90039C1.69922 9.70039 3.79922 11.9004 6.69922 11.9004C9.49922 11.9004 11.6992 9.70039 11.6992 6.90039C11.6992 4.10039 9.49922 1.90039 6.69922 1.90039Z" fill="url(#paint1_linear_543_13049)"/>
<path d="M41.6 41.8996H42L41.9 19.6996C41.6 14.1996 39.4 9.49961 35.4 5.79961C31.4 1.89961 26.6 0.0996094 21.1 0.0996094V9.89961C24.2 9.89961 26.7 10.9996 28.9 13.1996C31.1 15.3996 32.2 17.9996 32.2 20.9996C32.2 24.0996 31.1 26.6996 28.9 28.8996C26.6 30.9996 24 32.0996 21 32.0996C17.9 32.0996 15.3 30.9996 13.1 28.7996C11 26.6996 9.9 23.9996 9.9 20.9996C9.9 20.5996 9.9 20.1996 9.9 19.6996H0C0 20.0996 0 20.4996 0 20.9996C0 26.7996 2.1 31.7996 6.1 35.7996C10.2 39.8996 15.1 41.8996 20.9 41.8996C24.9 41.8996 28.6 40.7996 32 38.6996L41.6 41.8996Z" fill="#2D2D2D"/>
<path d="M189.3 40.4996C190.2 40.4996 191 39.7996 191 38.7996C191 37.8996 190.3 37.0996 189.3 37.0996C188.4 37.0996 187.6 37.7996 187.6 38.7996C187.6 39.6996 188.4 40.4996 189.3 40.4996Z" fill="url(#paint2_linear_543_13049)"/>
<path d="M189.3 40.4996C190.2 40.4996 191 39.7996 191 38.7996C191 37.8996 190.3 37.0996 189.3 37.0996C188.4 37.0996 187.6 37.7996 187.6 38.7996C187.6 39.6996 188.4 40.4996 189.3 40.4996Z" fill="url(#paint3_linear_543_13049)"/>
<path d="M123.2 40.4996C124.1 40.4996 124.9 39.7996 124.9 38.7996C124.9 37.8996 124.2 37.0996 123.2 37.0996C122.3 37.0996 121.5 37.7996 121.5 38.7996C121.5 39.6996 122.2 40.4996 123.2 40.4996Z" fill="url(#paint4_linear_543_13049)"/>
<path d="M123.2 40.4996C124.1 40.4996 124.9 39.7996 124.9 38.7996C124.9 37.8996 124.2 37.0996 123.2 37.0996C122.3 37.0996 121.5 37.7996 121.5 38.7996C121.5 39.6996 122.2 40.4996 123.2 40.4996Z" fill="url(#paint5_linear_543_13049)"/>
<path d="M115.701 10.3008C110.501 10.3008 106.801 14.2008 106.801 19.7008C106.801 24.9008 110.601 29.1008 115.501 29.1008C117.801 29.1008 119.901 28.2008 121.401 26.6008V28.8008H124.601V19.8008C124.601 14.2008 120.801 10.3008 115.701 10.3008ZM115.701 25.7008C112.401 25.7008 110.001 23.0008 110.001 19.5008C110.001 16.4008 111.901 13.3008 115.701 13.3008C119.701 13.3008 121.401 16.4008 121.401 19.5008C121.401 23.1008 119.001 25.7008 115.701 25.7008Z" fill="#2D2D2D"/>
<path d="M134.899 10.3008C130.199 10.3008 126.699 14.3008 126.699 19.7008V28.7008H129.799V19.7008C129.799 16.1008 131.899 13.5008 134.799 13.5008C137.599 13.5008 139.799 16.1008 139.799 19.7008V28.7008H142.999V19.7008C143.099 14.3008 139.599 10.3008 134.899 10.3008Z" fill="#2D2D2D"/>
<path d="M154 10.3008C148.8 10.3008 145.1 14.2008 145.1 19.7008C145.1 24.9008 148.9 29.1008 153.8 29.1008C156.1 29.1008 158.2 28.2008 159.7 26.6008V28.8008H162.9V19.8008C163 14.2008 159.2 10.3008 154 10.3008ZM154 25.7008C150.7 25.7008 148.3 23.0008 148.3 19.5008C148.3 16.4008 150.2 13.3008 154 13.3008C158 13.3008 159.7 16.4008 159.7 19.5008C159.7 23.1008 157.3 25.7008 154 25.7008Z" fill="#2D2D2D"/>
<path d="M168.901 3.90039H165.801V28.6004H168.901V3.90039Z" fill="#2D2D2D"/>
<path d="M193.899 6.59961H190.699V21.1996C190.699 26.0996 193.499 28.8996 198.499 28.8996H199.199V25.7996H198.499C195.199 25.7996 193.799 24.3996 193.799 21.1996V13.6996H199.199V10.4996H193.799V6.59961H193.899Z" fill="#2D2D2D"/>
<path d="M205.7 10.5996H202.5V28.6996H205.7V10.5996Z" fill="#2D2D2D"/>
<path d="M218 13.3992C220.9 13.3992 223 15.0992 223.5 17.5992L223.6 18.1992H226.9L226.8 17.3992C226.2 13.0992 222.6 10.1992 218 10.1992C212.8 10.1992 209 14.1992 209 19.5992C209 24.8992 212.9 28.9992 218 28.9992C222.5 28.9992 226.1 25.9992 226.8 21.7992L226.9 20.9992H223.6L223.5 21.5992C223 24.0992 220.8 25.8992 218 25.8992C214.6 25.8992 212.2 23.2992 212.2 19.6992C212.2 15.9992 214.6 13.3992 218 13.3992Z" fill="#2D2D2D"/>
<path d="M236.701 10.3008C231.501 10.3008 227.801 14.2008 227.801 19.7008C227.801 24.9008 231.601 29.1008 236.501 29.1008C238.801 29.1008 240.901 28.2008 242.401 26.6008V28.8008H245.601V19.8008C245.701 14.2008 241.901 10.3008 236.701 10.3008ZM236.701 25.7008C233.401 25.7008 231.001 23.0008 231.001 19.5008C231.001 16.4008 232.901 13.3008 236.701 13.3008C240.701 13.3008 242.401 16.4008 242.401 19.5008C242.501 23.1008 240.101 25.7008 236.701 25.7008Z" fill="#2D2D2D"/>
<path d="M187.999 10.5996H184.899V19.5996C184.899 23.1996 182.799 25.7996 179.899 25.7996C177.099 25.7996 174.899 23.1996 174.899 19.5996V10.5996H171.699V19.5996C171.699 24.8996 175.199 28.9996 179.899 28.9996C179.999 28.9996 179.999 28.9996 180.199 28.9996L176.699 33.9996H180.499L186.699 25.0996C187.599 23.5996 188.099 21.7996 188.099 19.6996V10.6996H187.999V10.5996Z" fill="#2D2D2D"/>
<path fill-rule="evenodd" clip-rule="evenodd" d="M57.2008 5.2C57.2008 6.2 56.4008 6.9 55.5008 6.9C54.6008 6.9 53.8008 6.2 53.8008 5.2C53.8008 4.2 54.6008 3.5 55.5008 3.5C56.5008 3.5 57.2008 4.2 57.2008 5.2ZM77.6016 28.5996V11.2996C77.6016 6.39961 80.4016 3.59961 85.5016 3.59961H86.2016V6.59961H85.5016C82.6016 6.59961 81.1016 7.79961 80.9016 10.4996H86.2016V13.6996H80.8016V28.5996H77.6016ZM57.1 10.3008H54V28.7008H57.2V10.3008H57.1ZM67.1023 10.3008C62.4023 10.3008 58.9023 14.3008 58.9023 19.7008V28.7008H62.0023V19.7008C62.0023 16.1008 64.1023 13.5008 67.0023 13.5008C69.8023 13.5008 72.0023 16.1008 72.0023 19.7008V28.7008H75.2023V19.7008C75.3023 14.3008 71.8023 10.3008 67.1023 10.3008ZM96.3023 10.3008C91.1023 10.3008 87.4023 14.2008 87.4023 19.7008C87.4023 25.2008 91.2023 29.1008 96.3023 29.1008C101.502 29.1008 105.202 25.2008 105.202 19.7008C105.202 14.2008 101.502 10.3008 96.3023 10.3008ZM96.3023 25.7008C92.9023 25.7008 90.6023 23.2008 90.6023 19.5008C90.6023 15.8008 93.0023 13.3008 96.3023 13.3008C99.6023 13.3008 102.002 15.8008 102.002 19.5008C102.002 23.2008 99.7023 25.7008 96.3023 25.7008Z" fill="url(#paint6_linear_543_13049)"/>
<path fill-rule="evenodd" clip-rule="evenodd" d="M57.2008 5.2C57.2008 6.2 56.4008 6.9 55.5008 6.9C54.6008 6.9 53.8008 6.2 53.8008 5.2C53.8008 4.2 54.6008 3.5 55.5008 3.5C56.5008 3.5 57.2008 4.2 57.2008 5.2ZM77.6016 28.5996V11.2996C77.6016 6.39961 80.4016 3.59961 85.5016 3.59961H86.2016V6.59961H85.5016C82.6016 6.59961 81.1016 7.79961 80.9016 10.4996H86.2016V13.6996H80.8016V28.5996H77.6016ZM57.1 10.3008H54V28.7008H57.2V10.3008H57.1ZM67.1023 10.3008C62.4023 10.3008 58.9023 14.3008 58.9023 19.7008V28.7008H62.0023V19.7008C62.0023 16.1008 64.1023 13.5008 67.0023 13.5008C69.8023 13.5008 72.0023 16.1008 72.0023 19.7008V28.7008H75.2023V19.7008C75.3023 14.3008 71.8023 10.3008 67.1023 10.3008ZM96.3023 10.3008C91.1023 10.3008 87.4023 14.2008 87.4023 19.7008C87.4023 25.2008 91.2023 29.1008 96.3023 29.1008C101.502 29.1008 105.202 25.2008 105.202 19.7008C105.202 14.2008 101.502 10.3008 96.3023 10.3008ZM96.3023 25.7008C92.9023 25.7008 90.6023 23.2008 90.6023 19.5008C90.6023 15.8008 93.0023 13.3008 96.3023 13.3008C99.6023 13.3008 102.002 15.8008 102.002 19.5008C102.002 23.2008 99.7023 25.7008 96.3023 25.7008Z" fill="url(#paint7_linear_543_13049)"/>
<path d="M204.2 6.9C205.1 6.9 205.9 6.2 205.9 5.2C205.9 4.2 205.2 3.5 204.2 3.5C203.2 3.5 202.5 4.2 202.5 5.2C202.5 6.2 203.2 6.9 204.2 6.9Z" fill="#2D2D2D"/>
<path d="M56.1 35.7988C57.1 35.7988 57.9 36.0988 58.5 36.5988C59.1 37.1988 59.4 37.8988 59.4 38.7988C59.4 39.6988 59.1 40.3988 58.5 40.9988C57.9 41.5988 57.1 41.7988 56.1 41.7988H54V35.7988H56.1ZM56.1 40.8988C56.8 40.8988 57.4 40.6988 57.8 40.2988C58.2 39.8988 58.4 39.3988 58.4 38.7988C58.4 38.1988 58.2 37.5988 57.8 37.2988C57.4 36.8988 56.8 36.6988 56.1 36.6988H55V40.9988H56.1V40.8988Z" fill="#2D2D2D"/>
<path d="M62.0996 41.8008V35.8008H63.0996V41.8008H62.0996Z" fill="#2D2D2D"/>
<path d="M69.6992 36.0996C70.0992 36.3996 70.3992 36.7996 70.4992 37.2996L69.4992 37.4996C69.3992 37.1996 69.2992 36.8996 68.9992 36.6996C68.6992 36.4996 68.3992 36.3996 68.0992 36.3996C67.6992 36.3996 67.4992 36.4996 67.1992 36.6996C66.9992 36.8996 66.8992 37.0996 66.8992 37.3996C66.8992 37.5996 66.9992 37.7996 67.0992 37.8996C67.1992 37.9996 67.3992 38.0996 67.6992 38.1996L68.9992 38.4996C69.9992 38.6996 70.4992 39.2996 70.4992 40.0996C70.4992 40.6996 70.2992 41.0996 69.8992 41.3996C69.4992 41.6996 68.8992 41.8996 68.1992 41.8996C67.4992 41.8996 66.9992 41.6996 66.4992 41.3996C65.9992 41.0996 65.7992 40.5996 65.6992 40.0996L66.6992 39.8996C66.7992 40.2996 66.8992 40.5996 67.1992 40.7996C67.4992 40.9996 67.7992 41.0996 68.1992 41.0996C68.5992 41.0996 68.8992 40.9996 69.0992 40.7996C69.2992 40.5996 69.3992 40.3996 69.3992 40.0996C69.3992 39.8996 69.2992 39.6996 69.1992 39.5996C69.0992 39.4996 68.8992 39.3996 68.4992 39.2996L67.1992 38.9996C66.1992 38.7996 65.6992 38.1996 65.6992 37.3996C65.6992 36.8996 65.8992 36.3996 66.2992 36.0996C66.6992 35.7996 67.1992 35.5996 67.8992 35.5996C68.7992 35.5996 69.2992 35.7996 69.6992 36.0996Z" fill="#2D2D2D"/>
<path d="M77.4 40.5992C77.8 40.2992 78 39.9992 78.1 39.4992L79 39.6992C78.8 40.3992 78.5 40.8992 78 41.2992C77.5 41.6992 76.8 41.8992 76.1 41.8992C75.2 41.8992 74.5 41.5992 73.9 40.9992C73.3 40.3992 73 39.5992 73 38.7992C73 37.8992 73.3 37.1992 73.9 36.5992C74.5 35.9992 75.3 35.6992 76.1 35.6992C76.8 35.6992 77.4 35.8992 78 36.2992C78.5 36.6992 78.9 37.1992 79.1 37.8992L78.2 38.1992C78.1 37.6992 77.8 37.2992 77.5 37.0992C77.2 36.8992 76.7 36.6992 76.2 36.6992C75.6 36.6992 75.1 36.8992 74.7 37.2992C74.3 37.6992 74.1 38.2992 74.1 38.8992C74.1 39.4992 74.3 40.0992 74.7 40.4992C75.1 40.8992 75.6 41.0992 76.2 41.0992C76.6 40.9992 77 40.8992 77.4 40.5992Z" fill="#2D2D2D"/>
<path d="M86.9 36.5992C87.5 37.1992 87.8 37.9992 87.8 38.7992C87.8 39.5992 87.5 40.3992 86.9 40.9992C86.3 41.5992 85.5 41.8992 84.7 41.8992C83.9 41.8992 83 41.5992 82.4 40.9992C81.8 40.3992 81.5 39.6992 81.5 38.7992C81.5 37.8992 81.8 37.1992 82.4 36.5992C83 35.9992 83.8 35.6992 84.6 35.6992C85.4 35.6992 86.3 35.8992 86.9 36.5992ZM86.2 40.3992C86.6 39.9992 86.8 39.3992 86.8 38.7992C86.8 38.1992 86.6 37.5992 86.2 37.1992C85.8 36.7992 85.3 36.5992 84.7 36.5992C84.1 36.5992 83.6 36.7992 83.2 37.1992C82.8 37.5992 82.6 38.1992 82.6 38.7992C82.6 39.3992 82.8 39.9992 83.2 40.3992C83.6 40.7992 84.1 40.9992 84.7 40.9992C85.2 40.9992 85.8 40.7992 86.2 40.3992Z" fill="#2D2D2D"/>
<path d="M93.0996 41.8008H92.1996L89.5996 35.8008H90.6996L92.6996 40.5008L94.6996 35.8008H95.7996L93.0996 41.8008Z" fill="#2D2D2D"/>
<path d="M102.6 41.8008H98.0996V35.8008H102.6V36.7008H99.0996V38.4008H102.4V39.3008H99.0996V41.0008H102.6V41.8008Z" fill="#2D2D2D"/>
<path d="M109.401 41.8008L107.201 39.4008H106.301V41.8008H105.301V35.8008H108.101C108.701 35.8008 109.201 36.0008 109.601 36.3008C110.001 36.6008 110.201 37.1008 110.201 37.6008C110.201 38.1008 110.001 38.5008 109.701 38.9008C109.401 39.3008 108.901 39.4008 108.301 39.4008L110.501 41.8008H109.401ZM108.301 38.5008C108.601 38.5008 108.901 38.4008 109.101 38.2008C109.301 38.0008 109.401 37.8008 109.401 37.5008C109.401 37.2008 109.301 37.0008 109.101 36.8008C108.901 36.6008 108.601 36.5008 108.301 36.5008H106.401V38.4008H108.301V38.5008Z" fill="#2D2D2D"/>
<path d="M140.199 41.7988H135.699V35.7988H140.199V36.6988H136.699V38.3988H139.999V39.2988H136.699V40.9988H140.199V41.7988Z" fill="#2D2D2D"/>
<path d="M148.4 41.7988H147.6L144 37.4988V41.7988H143V35.7988H143.8L147.4 40.1988V35.7988H148.4V41.7988Z" fill="#2D2D2D"/>
<path d="M155.399 41.7988L153.199 39.3988H152.299V41.7988H151.299V35.7988H154.099C154.699 35.7988 155.199 35.9988 155.599 36.2988C155.999 36.5988 156.199 37.0988 156.199 37.5988C156.199 38.0988 155.999 38.4988 155.699 38.8988C155.399 39.1988 154.899 39.3988 154.299 39.3988L156.499 41.7988H155.399ZM154.199 38.4988C154.499 38.4988 154.799 38.3988 154.999 38.1988C155.199 37.9988 155.299 37.7988 155.299 37.4988C155.299 37.1988 155.199 36.9988 154.999 36.7988C154.799 36.5988 154.499 36.4988 154.199 36.4988H152.299V38.3988H154.199V38.4988Z" fill="#2D2D2D"/>
<path d="M159 41.7988V35.7988H160V41.7988H159Z" fill="#2D2D2D"/>
<path d="M167.099 40.5992C167.499 40.2992 167.699 39.9992 167.799 39.4992L168.699 39.6992C168.499 40.3992 168.199 40.8992 167.699 41.2992C167.199 41.6992 166.499 41.8992 165.799 41.8992C164.899 41.8992 164.199 41.5992 163.599 40.9992C162.999 40.3992 162.699 39.5992 162.699 38.7992C162.699 37.8992 162.999 37.1992 163.599 36.5992C164.199 35.9992 164.999 35.6992 165.799 35.6992C166.499 35.6992 167.099 35.8992 167.699 36.2992C168.199 36.6992 168.599 37.1992 168.799 37.8992L167.899 38.1992C167.799 37.6992 167.499 37.2992 167.199 37.0992C166.799 36.7992 166.399 36.6992 165.899 36.6992C165.299 36.6992 164.799 36.8992 164.399 37.2992C163.999 37.6992 163.799 38.2992 163.799 38.8992C163.799 39.4992 163.999 40.0992 164.399 40.4992C164.799 40.8992 165.299 41.0992 165.899 41.0992C166.299 40.9992 166.699 40.8992 167.099 40.5992Z" fill="#2D2D2D"/>
<path d="M176.599 41.7988H175.599V39.1988H172.299V41.7988H171.299V35.7988H172.299V38.3988H175.599V35.7988H176.599V41.7988Z" fill="#2D2D2D"/>
<path d="M206.4 40.5992C206.8 40.2992 207 39.9992 207.1 39.4992L208 39.6992C207.8 40.3992 207.5 40.8992 207 41.2992C206.5 41.6992 205.8 41.8992 205.1 41.8992C204.2 41.8992 203.5 41.5992 202.9 40.9992C202.3 40.3992 202 39.5992 202 38.7992C202 37.8992 202.3 37.1992 202.9 36.5992C203.5 35.9992 204.3 35.6992 205.1 35.6992C205.8 35.6992 206.4 35.8992 207 36.2992C207.5 36.6992 207.9 37.1992 208.1 37.8992L207.2 38.1992C207.1 37.6992 206.8 37.2992 206.5 37.0992C206.1 36.7992 205.7 36.6992 205.2 36.6992C204.6 36.6992 204.1 36.8992 203.7 37.2992C203.3 37.6992 203.1 38.2992 203.1 38.8992C203.1 39.4992 203.3 40.0992 203.7 40.4992C204.1 40.8992 204.6 41.0992 205.2 41.0992C205.6 40.9992 206 40.8992 206.4 40.5992Z" fill="#2D2D2D"/>
<path d="M215.799 39.0992C215.799 39.8992 215.599 40.5992 215.099 41.0992C214.599 41.5992 213.999 41.8992 213.299 41.8992C212.499 41.8992 211.899 41.5992 211.399 41.0992C210.899 40.5992 210.699 39.8992 210.699 39.0992V35.6992H211.699V39.0992C211.699 39.6992 211.899 40.0992 212.199 40.4992C212.499 40.7992 212.899 40.9992 213.399 40.9992C213.899 40.9992 214.299 40.7992 214.499 40.4992C214.699 40.1992 214.899 39.6992 214.899 39.0992V35.6992H215.899V39.0992H215.799Z" fill="#2D2D2D"/>
<path d="M222.7 41.7988L220.5 39.3988H219.6V41.7988H218.6V35.7988H221.4C222 35.7988 222.5 35.9988 222.9 36.2988C223.3 36.5988 223.5 37.0988 223.5 37.5988C223.5 38.0988 223.3 38.4988 223 38.8988C222.7 39.1988 222.2 39.3988 221.6 39.3988L223.8 41.7988H222.7ZM221.6 38.4988C221.9 38.4988 222.2 38.3988 222.4 38.1988C222.6 37.9988 222.7 37.7988 222.7 37.4988C222.7 37.1988 222.6 36.9988 222.4 36.7988C222.2 36.5988 221.9 36.4988 221.6 36.4988H219.7V38.3988H221.6V38.4988Z" fill="#2D2D2D"/>
<path d="M231 41.7988L230.4 40.3988H227.5L226.9 41.7988H225.9L228.6 35.7988H229.5L232.2 41.7988H231ZM228.9 36.8988L227.8 39.4988H230L228.9 36.8988Z" fill="#2D2D2D"/>
<path d="M236.401 36.5992V41.7992H235.401V36.5992H233.301V35.6992H238.501V36.5992H236.401Z" fill="#2D2D2D"/>
<path d="M245.5 41.7988H241V35.7988H245.5V36.6988H242V38.3988H245.3V39.2988H242V40.9988H245.5V41.7988Z" fill="#2D2D2D"/>
</g>
<defs>
<linearGradient id="paint0_linear_543_13049" x1="-3.51057" y1="14.8171" x2="8.88909" y2="17.3852" gradientUnits="userSpaceOnUse">
<stop stop-color="#6C63FF"/>
<stop offset="1" stop-color="#6C63FF"/>
</linearGradient>
<linearGradient id="paint1_linear_543_13049" x1="-3.51057" y1="14.8171" x2="8.88909" y2="17.3852" gradientUnits="userSpaceOnUse">
<stop stop-color="#BF59FE"/>
<stop offset="0.515625" stop-color="#6C63FF"/>
</linearGradient>
<linearGradient id="paint2_linear_543_13049" x1="185.828" y1="41.4913" x2="190.044" y2="42.3644" gradientUnits="userSpaceOnUse">
<stop stop-color="#6C63FF"/>
<stop offset="1" stop-color="#6C63FF"/>
</linearGradient>
<linearGradient id="paint3_linear_543_13049" x1="185.828" y1="41.4913" x2="190.044" y2="42.3644" gradientUnits="userSpaceOnUse">
<stop stop-color="#BF59FE"/>
<stop offset="0.515625" stop-color="#6C63FF"/>
</linearGradient>
<linearGradient id="paint4_linear_543_13049" x1="119.729" y1="41.4913" x2="123.945" y2="42.3644" gradientUnits="userSpaceOnUse">
<stop stop-color="#6C63FF"/>
<stop offset="1" stop-color="#6C63FF"/>
</linearGradient>
<linearGradient id="paint5_linear_543_13049" x1="119.729" y1="41.4913" x2="123.945" y2="42.3644" gradientUnits="userSpaceOnUse">
<stop stop-color="#BF59FE"/>
<stop offset="0.515625" stop-color="#6C63FF"/>
</linearGradient>
<linearGradient id="paint6_linear_543_13049" x1="52.0294" y1="7.89183" x2="56.2454" y2="8.765" gradientUnits="userSpaceOnUse">
<stop stop-color="#6C63FF"/>
<stop offset="1" stop-color="#6C63FF"/>
</linearGradient>
<linearGradient id="paint7_linear_543_13049" x1="27.0216" y1="36.5677" x2="83.6921" y2="60.1337" gradientUnits="userSpaceOnUse">
<stop stop-color="#BF59FE"/>
<stop offset="0.515625" stop-color="#6C63FF"/>
</linearGradient>
<clipPath id="clip0_543_13049">
<rect width="246" height="42" fill="white"/>
</clipPath>
</defs>
</svg>
